<svg width="46" height="46" viewBox="0 0 46 46" fill="none" xmlns="http://www.w3.org/2000/svg">
<path d="M24.6396 0.525578C24.6846 0.59745 25.0799 1.18143 25.5246 1.82831C25.9648 2.47968 26.3242 3.01874 26.3242 3.03671C26.3242 3.05468 26.2568 3.05468 26.1805 3.03671C25.1742 2.83456 22.8832 2.72675 21.6523 2.82558C16.9355 3.19843 12.7668 5.25136 8.9125 9.09667C6.39238 11.6123 4.25859 14.6131 2.42578 18.2158C1.85527 19.3344 1.07812 21.0504 1.07812 21.1851C1.07812 21.2031 1.17246 21.0863 1.28477 20.9291C2.09336 19.8195 3.68359 18.8357 5.81738 18.126C6.7293 17.8205 7.08418 17.7576 7.46601 17.834C8.28808 17.9957 8.78672 18.6066 9.09219 19.842C9.28984 20.6191 9.35273 21.293 9.35273 22.5957C9.35273 24.0287 9.24043 25.4078 9.00234 26.9217C8.96191 27.1642 8.94394 27.3754 8.95742 27.3934C8.9709 27.4068 8.98437 27.3844 8.98437 27.3484C8.98437 27.2182 9.30332 26.1715 9.50996 25.6324C9.98164 24.3926 10.4893 23.4986 11.199 22.6586C11.7785 21.9668 12.1648 21.7287 12.677 21.7332C13.6832 21.7377 14.8557 22.9461 16.2033 25.3584C16.4818 25.857 16.8098 26.5084 16.7918 26.5264C16.7828 26.5309 16.6256 26.6387 16.4414 26.76C14.6805 27.9369 12.9734 29.5182 11.8684 30.9961C10.6016 32.6941 9.84687 34.5988 9.65371 36.5889C9.56387 37.5232 9.6582 38.9562 9.92773 40.7666C10.04 41.5078 10.4713 44.0369 10.4893 44.0594C10.4982 44.0683 10.9564 43.7359 11.509 43.3226C13.6383 41.7279 15.1566 40.834 16.2078 40.56C16.7603 40.4117 17.5824 40.506 18.3281 40.798C18.6785 40.9328 19.2715 41.2517 19.2715 41.3057C19.2715 41.4314 20.9201 42.4646 21.9084 42.9588C24.9496 44.4861 28.3951 44.9039 31.6025 44.1402C32.8424 43.8437 34.5853 43.381 35.1064 43.2148C38.9158 41.975 41.5258 39.8951 43.0531 36.8853C43.8393 35.331 44.1402 34.1541 44.1896 32.4066C44.2166 31.4408 44.1717 30.8164 44.0189 30.0213C43.5293 27.4742 41.9525 25.3135 39.4459 23.7502C39.2078 23.6019 39.0057 23.4762 38.9967 23.4672C38.9877 23.4582 39.0057 23.3279 39.0326 23.1707C39.8682 18.4898 40.1287 16.091 39.9805 14.4289C39.4773 8.8496 35.0975 4.46972 26.751 1.19042C25.848 0.835537 24.6621 0.404289 24.5947 0.404289C24.5768 0.404289 24.5992 0.458195 24.6396 0.525578ZM26.9037 3.85429C26.9666 3.94413 27.1732 4.26757 27.3619 4.56855L27.7123 5.11659L27.4787 5.13905C27.3484 5.14804 26.8812 5.18398 26.4365 5.21093C24.2623 5.3457 22.1869 5.7994 20.5787 6.48671C20.3721 6.57655 20.1969 6.64394 20.1879 6.63495C20.1564 6.60351 21.0369 5.93417 21.6074 5.56132C23.0225 4.62695 24.6711 3.99804 26.3691 3.733C26.7734 3.67011 26.7869 3.67011 26.9037 3.85429ZM20.6371 4.14628C18.6605 5.12558 17.1736 6.12733 15.6508 7.50195C13.7146 9.25839 12.1289 11.5988 11.2035 14.065C10.5297 15.8664 10.1164 17.9912 10.1029 19.6982C10.0984 20.4215 10.0984 20.4215 9.90527 19.6398C9.50996 18.0361 8.75078 17.0029 7.77598 16.7469C6.90449 16.5223 5.5209 16.7693 4.13281 17.4072C3.89922 17.515 3.70156 17.5959 3.69258 17.5869C3.66562 17.5644 4.62246 16.1629 5.22441 15.3408C7.65469 12.0211 10.1613 9.23143 12.1738 7.61425C14.3885 5.83534 17.4791 4.46523 20.709 3.83632C21.5715 3.67011 21.5625 3.69257 20.6371 4.14628ZM22.2588 3.85429C22.2318 3.87675 21.9623 4.05194 21.6523 4.2496C19.1187 5.84882 17.1691 7.60526 15.8709 9.45604C14.8242 10.943 13.9887 12.9959 13.7281 14.7119C13.4721 16.374 13.535 18.3596 13.8988 20.3406L13.9977 20.8887L13.8854 20.7853C13.8225 20.7269 13.7191 20.6326 13.6562 20.5787C13.5934 20.5203 13.4316 20.399 13.2969 20.3047C12.6006 19.833 12.0436 19.7252 11.5314 19.9678C11.1586 20.143 10.7094 20.8303 10.5432 21.4861C10.5027 21.6344 10.4623 21.7646 10.4488 21.7781C10.3455 21.8769 10.4893 19.5051 10.6465 18.4225C11.0822 15.4396 12.1514 12.4838 13.508 10.5207C15.1027 8.20722 17.852 6.00155 21.2256 4.32597C22.2363 3.82734 22.3531 3.76894 22.2588 3.85429ZM31.0904 5.10312C32.1596 5.53437 33.2871 6.18573 34.0598 6.81913C34.5 7.1785 35.2727 7.98261 35.6006 8.42284C36.7236 9.92323 37.393 11.8189 37.5951 14.0605C37.6625 14.8017 37.6535 16.4279 37.5771 17.2949C37.5143 18.0092 37.384 19.0514 37.3525 19.0828C37.3436 19.0918 36.9977 18.7998 36.5799 18.4314C34.0867 16.2482 31.9709 14.7433 30.174 13.8808C28.5703 13.1082 27.317 12.9016 26.2119 13.2295C24.6441 13.6967 23.8984 14.5816 23.8984 15.9877C23.8984 16.374 23.9748 16.967 24.0691 17.3084C24.1006 17.4207 24.3656 17.5869 26.1894 18.6381C27.3394 19.2984 28.4805 19.9588 28.7275 20.107C31.3555 21.7017 36.481 24.7924 36.9033 25.035C37.1998 25.2101 37.6355 25.4617 37.8691 25.5965C38.9068 26.1939 40.0613 27.2137 40.6228 28.0133C41.6605 29.5002 42.0379 31.1713 41.7953 33.1703C41.6381 34.4551 41.2383 35.5062 40.4521 36.7012C38.9607 38.9652 36.4182 40.524 32.8559 41.3506C32.4875 41.4359 31.9754 41.5662 31.7148 41.6426C29.1004 42.3973 26.3781 42.249 23.858 41.2068C22.8113 40.7756 22.0746 40.3488 20.5338 39.2932C20.1744 39.0461 19.1816 38.5699 18.71 38.4127C17.9598 38.1656 17.6229 38.1162 16.6885 38.1162C16.0236 38.1162 15.7496 38.1342 15.4531 38.2016C14.5322 38.4037 13.5395 38.8394 12.668 39.4189C12.3895 39.6031 12.1514 39.7558 12.1334 39.7558C12.0885 39.7558 12.0031 39.0685 11.9492 38.2734C11.8234 36.4541 12.2053 34.6078 13.0139 33.1074C13.9348 31.4004 15.4217 29.909 17.4926 28.6287C18.1125 28.2469 19.3119 27.6135 19.3748 27.6404C19.4018 27.6539 19.4781 27.7887 19.5365 27.9459C19.7072 28.4086 20.3541 29.7203 20.6596 30.2324C22.1824 32.7615 24.1545 34.3787 26.733 35.2142C28.4131 35.7578 30.4705 35.924 32.6223 35.6904C33.3725 35.6051 33.4174 35.5871 33.9879 35.0166C34.4371 34.5674 34.5674 34.2889 34.5314 33.8262C34.5045 33.4353 34.3518 33.1434 33.9475 32.7166C33.5926 32.3437 33.8127 32.492 27.6045 28.3996C25.902 27.2721 24.2174 26.1625 23.8625 25.9334C23.3773 25.61 23.2246 25.4887 23.2426 25.4348C23.2561 25.3943 23.4627 24.743 23.6963 23.9928C23.9344 23.2426 24.123 22.6226 24.1141 22.6137C24.1051 22.6047 23.7008 23.0719 23.2201 23.6514C22.7439 24.2309 22.3307 24.698 22.3037 24.6891C22.1644 24.6396 19.8959 23.0314 19.6219 22.7934C19.0693 22.3082 18.5707 21.7107 18.0227 20.8887C17.4387 20.0082 17.3129 19.7027 17.0703 18.5752C16.8682 17.6498 16.8232 17.2141 16.8232 16.1719C16.8277 15.1611 16.8727 14.685 17.0478 13.8584C17.5061 11.7156 18.984 9.90976 21.1447 8.86757C22.5777 8.17577 24.3162 7.76249 26.5578 7.5873C27.3709 7.52441 30.3986 7.55585 31.2791 7.63671C31.616 7.66816 31.908 7.68163 31.9215 7.66816C31.9754 7.61425 31.7463 6.99433 31.4768 6.45527C31.333 6.16327 31.0635 5.70507 30.8793 5.43105C30.6951 5.15702 30.5469 4.92343 30.5469 4.91444C30.5469 4.883 30.5693 4.89198 31.0904 5.10312ZM28.0986 15.6328C29.7383 16.2078 32.4471 18.1664 36.7326 21.8725C37.2357 22.3037 37.6355 22.6631 37.6266 22.6721C37.6221 22.681 37.0381 22.3396 36.3373 21.9129C30.8164 18.5842 28.9027 17.4297 27.6853 16.7109C26.9127 16.2572 26.2793 15.8619 26.2793 15.835C26.2793 15.7586 26.5398 15.6238 26.8588 15.534C27.2496 15.4262 27.5865 15.4531 28.0986 15.6328ZM16.0551 22.2723C16.3605 22.7439 16.5986 23.0404 17.25 23.7367C17.6947 24.2174 18.2203 24.7564 18.418 24.9361C18.6156 25.1113 18.7773 25.273 18.7773 25.2955C18.7773 25.3135 18.6291 25.4078 18.4539 25.5066C18.2742 25.6055 17.843 25.8615 17.5016 26.0726C17.1557 26.2883 16.8592 26.4455 16.8412 26.4275C16.7873 26.3691 16.3561 24.9586 16.1494 24.1455C15.8619 23.0225 15.5744 21.576 15.6553 21.6568C15.6643 21.6703 15.8439 21.9443 16.0551 22.2723ZM23.0225 28.2334C23.3684 28.4625 25.1697 29.6529 27.0205 30.8838C28.8758 32.1146 30.466 33.1703 30.5603 33.2287C30.6592 33.2871 30.7266 33.35 30.7131 33.3635C30.6682 33.4039 29.4238 33.2871 28.9432 33.1928C26.7195 32.766 24.7654 31.4094 23.1797 29.1992C22.8428 28.732 22.2812 27.8516 22.2812 27.7932C22.2812 27.7482 22.2453 27.7258 23.0225 28.2334Z" fill="white"/>
<path d="M34.3023 9.5504C34.4057 9.8918 34.3832 10.4443 34.2574 10.7139C34.0508 11.1631 33.6195 11.4191 32.8289 11.5629C32.5414 11.6168 32.5234 11.6258 32.6941 11.6303C33.4219 11.6482 34.2574 12.358 35.0121 13.5979C35.3445 14.1459 35.7488 14.932 35.8072 15.1522C35.8432 15.2824 35.8656 15.3184 35.906 15.2779C35.9824 15.2016 36.0049 13.4316 35.942 12.9195C35.8387 12.1559 35.632 11.509 35.2322 10.7363C35.0121 10.3006 34.3787 9.38419 34.2799 9.35274C34.2574 9.34376 34.2664 9.4336 34.3023 9.5504Z" fill="white"/>
</svg>
