<?xml version="1.0" standalone="no"?>
<!DOCTYPE svg PUBLIC "-//W3C//DTD SVG 20010904//EN"
 "http://www.w3.org/TR/2001/REC-SVG-20010904/DTD/svg10.dtd">
<svg version="1.0" xmlns="http://www.w3.org/2000/svg"
 width="1024.000000pt" height="1024.000000pt" viewBox="0 0 1024.000000 1024.000000"
 preserveAspectRatio="xMidYMid meet">
<metadata>
Created by potrace 1.16, written by Peter Selinger 2001-2019
</metadata>
<g transform="translate(0.000000,1024.000000) scale(0.100000,-0.100000)"
fill="#000000" stroke="none">
<path d="M5485 10123 c10 -16 98 -146 197 -290 98 -145 178 -265 178 -269 0
-4 -15 -4 -32 0 -224 45 -734 69 -1008 47 -1050 -83 -1978 -540 -2836 -1396
-561 -560 -1036 -1228 -1444 -2030 -127 -249 -300 -631 -300 -661 0 -4 21 22
46 57 180 247 534 466 1009 624 203 68 282 82 367 65 183 -36 294 -172 362
-447 44 -173 58 -323 58 -613 0 -319 -25 -626 -78 -963 -9 -54 -13 -101 -10
-105 3 -3 6 2 6 10 0 29 71 262 117 382 105 276 218 475 376 662 129 154 215
207 329 206 224 -1 485 -270 785 -807 62 -111 135 -256 131 -260 -2 -1 -37
-25 -78 -52 -392 -262 -772 -614 -1018 -943 -282 -378 -450 -802 -493 -1245
-20 -208 1 -527 61 -930 25 -165 121 -728 125 -733 2 -2 104 72 227 164 474
355 812 554 1046 615 123 33 306 12 472 -53 78 -30 210 -101 210 -113 0 -28
367 -258 587 -368 677 -340 1444 -433 2158 -263 276 66 664 169 780 206 848
276 1429 739 1769 1409 175 346 242 608 253 997 6 215 -4 354 -38 531 -109
567 -460 1048 -1018 1396 -53 33 -98 61 -100 63 -2 2 2 31 8 66 186 1042 244
1576 211 1946 -112 1242 -1087 2217 -2945 2947 -201 79 -465 175 -480 175 -4
0 1 -12 10 -27z m504 -741 c14 -20 60 -92 102 -159 l78 -122 -52 -5 c-29 -2
-133 -10 -232 -16 -484 -30 -946 -131 -1304 -284 -46 -20 -85 -35 -87 -33 -7
7 189 156 316 239 315 208 682 348 1060 407 90 14 93 14 119 -27z m-1395 -65
c-440 -218 -771 -441 -1110 -747 -431 -391 -784 -912 -990 -1461 -150 -401
-242 -874 -245 -1254 -1 -161 -1 -161 -44 13 -88 357 -257 587 -474 644 -194
50 -502 -5 -811 -147 -52 -24 -96 -42 -98 -40 -6 5 207 317 341 500 541 739
1099 1360 1547 1720 493 396 1181 701 1900 841 192 37 190 32 -16 -69z m361
65 c-6 -5 -66 -44 -135 -88 -564 -356 -998 -747 -1287 -1159 -233 -331 -419
-788 -477 -1170 -57 -370 -43 -812 38 -1253 l22 -122 -25 23 c-14 13 -37 34
-51 46 -14 13 -50 40 -80 61 -155 105 -279 129 -393 75 -83 -39 -183 -192
-220 -338 -9 -33 -18 -62 -21 -65 -23 -22 9 506 44 747 97 664 335 1322 637
1759 355 515 967 1006 1718 1379 225 111 251 124 230 105z m1966 -278 c238
-96 489 -241 661 -382 98 -80 270 -259 343 -357 250 -334 399 -756 444 -1255
15 -165 13 -527 -4 -720 -14 -159 -43 -391 -50 -398 -2 -2 -79 63 -172 145
-555 486 -1026 821 -1426 1013 -357 172 -636 218 -882 145 -349 -104 -515
-301 -515 -614 0 -86 17 -218 38 -294 7 -25 66 -62 472 -296 256 -147 510
-294 565 -327 585 -355 1726 -1043 1820 -1097 66 -39 163 -95 215 -125 231
-133 488 -360 613 -538 231 -331 315 -703 261 -1148 -35 -286 -124 -520 -299
-786 -332 -504 -898 -851 -1691 -1035 -82 -19 -196 -48 -254 -65 -582 -168
-1188 -135 -1749 97 -233 96 -397 191 -740 426 -80 55 -301 161 -406 196 -167
55 -242 66 -450 66 -148 0 -209 -4 -275 -19 -205 -45 -426 -142 -620 -271 -62
-41 -115 -75 -119 -75 -10 0 -29 153 -41 330 -28 405 57 816 237 1150 205 380
536 712 997 997 138 85 405 226 419 220 6 -3 23 -33 36 -68 38 -103 182 -395
250 -509 339 -563 778 -923 1352 -1109 374 -121 832 -158 1311 -106 167 19
177 23 304 150 100 100 129 162 121 265 -6 87 -40 152 -130 247 -79 83 -30 50
-1412 961 -379 251 -754 498 -833 549 -108 72 -142 99 -138 111 3 9 49 154
101 321 53 167 95 305 93 307 -2 2 -92 -102 -199 -231 -106 -129 -198 -233
-204 -231 -31 11 -536 369 -597 422 -123 108 -234 241 -356 424 -130 196 -158
264 -212 515 -45 206 -55 303 -55 535 1 225 11 331 50 515 102 477 431 879
912 1111 319 154 706 246 1205 285 181 14 855 7 1051 -11 75 -7 140 -10 143
-7 12 12 -39 150 -99 270 -32 65 -92 167 -133 228 -41 61 -74 113 -74 115 0 7
5 5 121 -42z m-666 -2344 c365 -128 968 -564 1922 -1389 112 -96 201 -176 199
-178 -1 -2 -131 74 -287 169 -1229 741 -1655 998 -1926 1158 -172 101 -313
189 -313 195 0 17 58 47 129 67 87 24 162 18 276 -22z m-2681 -1478 c68 -105
121 -171 266 -326 99 -107 216 -227 260 -267 44 -39 80 -75 80 -80 0 -4 -33
-25 -72 -47 -40 -22 -136 -79 -212 -126 -77 -48 -143 -83 -147 -79 -12 13
-108 327 -154 508 -64 250 -128 572 -110 554 2 -3 42 -64 89 -137z m1551
-1327 c77 -51 478 -316 890 -590 413 -274 767 -509 788 -522 22 -13 37 -27 34
-30 -10 -9 -287 17 -394 38 -495 95 -930 397 -1283 889 -75 104 -200 300 -200
313 0 10 -8 15 165 -98z"/>
<path d="M7636 8114 c23 -76 18 -199 -10 -259 -46 -100 -142 -157 -318 -189
-64 -12 -68 -14 -30 -15 162 -4 348 -162 516 -438 74 -122 164 -297 177 -346
8 -29 13 -37 22 -28 17 17 22 411 8 525 -23 170 -69 314 -158 486 -49 97 -190
301 -212 308 -5 2 -3 -18 5 -44z"/>
</g>
</svg>
